<?xml version="1.0" encoding="utf-8"?>
<svg version="1.1" xmlns:xlink="http://www.w3.org/1999/xlink" width="14px" height="12px" xmlns="http://www.w3.org/2000/svg">
  <g transform="matrix(1 0 0 1 -260 -2631 )">
    <path d="M 0.481091431306845 6.44566778362853  L 4.85351842987075 10.7912876974629  C 4.97073891840034 10.9288222560928  5.14391417110842 11.0059063624811  5.32455720440402 11.0009573958832  C 5.50520023769963 11.0059063624811  5.6783754904077 10.9288222560928  5.79559597893729 10.7912876974629  L 13.5189085686932 3.09478219243657  C 13.6421291449921 2.96965119057905  13.7082851557963 2.7992388486122  13.7017711823839 2.6237434179033  C 13.7082851557963 2.44824798719441  13.6421291449921 2.27783564522756  13.5189085686932 2.15270464337003  L 12.5528961225467 1.2096696984203  C 12.4396340633825 1.07398709730429  12.2710191619251 0.996895941940689  12.094303494495 1  C 11.9109389468217 1.00067323856712  11.7358584301168 1.07644919342555  11.6098611775969 1.2096696984203  L 5.32455720440402 7.49305887984682  L 2.39205361416946 4.56055528961226  C 2.26605636164961 4.42733478461751  2.09097584494473 4.35155882975907  1.90761129727142 4.35088559119196  C 1.73089562984128 4.34778153313265  1.56228072838391 4.42487268849624  1.44901866921972 4.56055528961225  L 0.480134035423648 5.50263283867879  C 0.357016516935902 5.62815577194209  0.291194649426427 5.7989461965851  0.298228817616085 5.97462900909526  C 0.291714844203667 6.15012443980416  0.35787085500787 6.320536781771  0.481091431306845 6.44566778362853  Z " fill-rule="nonzero" fill="#333333" stroke="none" transform="matrix(1 0 0 1 260 2631 )" />
  </g>
</svg>