<?xml version="1.0" encoding="utf-8"?>
<svg version="1.1" xmlns:xlink="http://www.w3.org/1999/xlink" width="9px" height="9px" xmlns="http://www.w3.org/2000/svg">
  <g transform="matrix(1 0 0 1 -544 -277 )">
    <path d="M 3.40639956242308 8  C 3.29647577439336 8.00151629686955  3.19081584392098 7.95752019467285  3.11445371256666 7.8784356625188  L 0.125119649938465 4.86421441268973  C 0.0445477819238631 4.78412256673536  0.000569430919615144 4.67434983233893  0.00355531245726759 4.5607821687406  C 0.000569430919616032 4.44721450514227  0.0445477819238631 4.33744177074584  0.125119649938465 4.25734992479147  L 1.14549432517435 3.23697524955559  C 1.2327412382436 3.15978607532476  1.34488534755003 3.1166275847735  1.46137016272392 3.11541091207439  C 1.56963597775385 3.11520913499432  1.67331656152217 3.15910058212291  1.74853001504171 3.23697524955559  L 3.43032955011623 4.91303158758376  L 7.24572678791194 1.1215643374812  C 7.32581863386631 1.04099246946659  7.43559136826274 0.997014118462348  7.54915903186107 1  C 7.6627266954594 0.997014118462348  7.77249942985583 1.04099246946659  7.8525912758102 1.1215643374812  L 8.87296595104608 2.14193901271708  C 8.95175738103815 2.23313634321728  8.99493104309796 2.34973922578826  8.99453028852728 2.47025844386709  C 8.99751617006493 2.58382610746542  8.95353781906068 2.69359884186185  8.87296595104608 2.77369068781622  L 3.72227539997265 7.8784356625188  C 3.6350284869034 7.95562483674963  3.52288437759697 7.99878332730089  3.40639956242308 8  Z " fill-rule="nonzero" fill="#333333" stroke="none" transform="matrix(1 0 0 1 544 277 )" />
  </g>
</svg>