<svg xmlns="http://www.w3.org/2000/svg" width="15" height="15" viewBox="0 0 15 15">
  <g id="Validation" transform="translate(-117 -1856)">
    <rect id="Rectangle_510" data-name="Rectangle 510" width="15" height="15" rx="7.5" transform="translate(117 1856)" fill="#199854"/>
    <path id="Path_156" data-name="Path 156" d="M-4.373-4.826A.345.345,0,0,0-4.1-4.7a.345.345,0,0,0,.272-.121L.625-9.265A.368.368,0,0,0,.73-9.537a.368.368,0,0,0-.106-.272l-.559-.544A.337.337,0,0,0-.2-10.473a.384.384,0,0,0-.279.121L-4.1-6.728-5.792-8.419a.384.384,0,0,0-.279-.121.337.337,0,0,0-.264.121l-.559.544A.368.368,0,0,0-7-7.6a.368.368,0,0,0,.106.272Z" transform="translate(128 1871.472)" fill="#fff"/>
  </g>
</svg>
