<svg id="youtube" xmlns="http://www.w3.org/2000/svg" width="32" height="32" viewBox="0 0 32 32">
  <g id="Group_940" data-name="Group 940">
    <path id="Path_243" data-name="Path 243" d="M949,2234a16,16,0,1,1-16,16,16,16,0,0,1,16-16m0,1a15,15,0,1,1-15,15,15,15,0,0,1,15-15" transform="translate(-933 -2234)" fill="#f2f3f0" fill-rule="evenodd"/>
  </g>
  <path id="Path_281" data-name="Path 281" d="M18.17-13.781a14.828,14.828,0,0,1,.328,2.691l.033,1.641L18.5-7.809a15,15,0,0,1-.328,2.723,2.288,2.288,0,0,1-.591.984,2.274,2.274,0,0,1-1.017.591,23.339,23.339,0,0,1-4,.328L9.573-3.15,6.587-3.183a23.339,23.339,0,0,1-4-.328A2.274,2.274,0,0,1,1.567-4.1a2.288,2.288,0,0,1-.591-.984A15,15,0,0,1,.648-7.809L.615-9.45q0-.722.033-1.641a14.827,14.827,0,0,1,.328-2.691A2.274,2.274,0,0,1,1.567-14.8a2.274,2.274,0,0,1,1.017-.591,23.339,23.339,0,0,1,4-.328l2.986-.033,2.986.033a23.339,23.339,0,0,1,4,.328,2.274,2.274,0,0,1,1.017.591A2.275,2.275,0,0,1,18.17-13.781ZM7.736-6.759,12.428-9.45,7.736-12.108Z" transform="translate(6.585 25.35)" fill="#f2f3f0"/>
</svg>
