<svg xmlns="http://www.w3.org/2000/svg" width="15.75" height="18" viewBox="0 0 15.75 18">
  <path id="Path_268" data-name="Path 268" d="M0,.562V-9H15.75V.562a1.627,1.627,0,0,1-.492,1.2,1.627,1.627,0,0,1-1.2.492H1.687a1.627,1.627,0,0,1-1.2-.492A1.627,1.627,0,0,1,0,.562ZM11.25-6.328v1.406a.407.407,0,0,0,.123.3.407.407,0,0,0,.3.123h1.406a.407.407,0,0,0,.3-.123.407.407,0,0,0,.123-.3V-6.328a.407.407,0,0,0-.123-.3.407.407,0,0,0-.3-.123H11.672a.407.407,0,0,0-.3.123A.407.407,0,0,0,11.25-6.328Zm0,4.5V-.422a.407.407,0,0,0,.123.3.407.407,0,0,0,.3.123h1.406a.407.407,0,0,0,.3-.123.407.407,0,0,0,.123-.3V-1.828a.407.407,0,0,0-.123-.3.407.407,0,0,0-.3-.123H11.672a.407.407,0,0,0-.3.123A.407.407,0,0,0,11.25-1.828Zm-4.5-4.5v1.406a.407.407,0,0,0,.123.3.407.407,0,0,0,.3.123H8.578a.407.407,0,0,0,.3-.123A.407.407,0,0,0,9-4.922V-6.328a.407.407,0,0,0-.123-.3.407.407,0,0,0-.3-.123H7.172a.407.407,0,0,0-.3.123A.407.407,0,0,0,6.75-6.328Zm0,4.5V-.422a.407.407,0,0,0,.123.3.407.407,0,0,0,.3.123H8.578a.407.407,0,0,0,.3-.123A.407.407,0,0,0,9-.422V-1.828a.407.407,0,0,0-.123-.3.407.407,0,0,0-.3-.123H7.172a.407.407,0,0,0-.3.123A.407.407,0,0,0,6.75-1.828Zm-4.5-4.5v1.406a.407.407,0,0,0,.123.3.407.407,0,0,0,.3.123H4.078a.407.407,0,0,0,.3-.123.407.407,0,0,0,.123-.3V-6.328a.407.407,0,0,0-.123-.3.407.407,0,0,0-.3-.123H2.672a.407.407,0,0,0-.3.123A.407.407,0,0,0,2.25-6.328Zm0,4.5V-.422a.407.407,0,0,0,.123.3.407.407,0,0,0,.3.123H4.078a.407.407,0,0,0,.3-.123.407.407,0,0,0,.123-.3V-1.828a.407.407,0,0,0-.123-.3.407.407,0,0,0-.3-.123H2.672a.407.407,0,0,0-.3.123A.407.407,0,0,0,2.25-1.828ZM14.062-13.5a1.627,1.627,0,0,1,1.2.492,1.627,1.627,0,0,1,.492,1.2v1.687H0v-1.687a1.627,1.627,0,0,1,.492-1.2,1.627,1.627,0,0,1,1.2-.492H3.375v-1.687a.547.547,0,0,1,.158-.4.547.547,0,0,1,.4-.158H5.062a.547.547,0,0,1,.4.158.548.548,0,0,1,.158.4V-13.5h4.5v-1.687a.547.547,0,0,1,.158-.4.547.547,0,0,1,.4-.158h1.125a.548.548,0,0,1,.4.158.547.547,0,0,1,.158.4V-13.5Z" transform="translate(0 15.75)" fill="#c02"/>
</svg>
