<svg id="Customer_support" data-name="Customer support" xmlns="http://www.w3.org/2000/svg" width="95.812" height="94.714" viewBox="0 0 95.812 94.714">
  <path id="Path_119" data-name="Path 119" d="M127.718,119.468a1.5,1.5,0,0,1-1.457-1.861,29.822,29.822,0,0,0,.866-7.152V91.34a1.5,1.5,0,0,1,3,0v19.115a32.843,32.843,0,0,1-.954,7.873A1.5,1.5,0,0,1,127.718,119.468Z" transform="translate(-49.596 -48.454)" fill="#c02"/>
  <path id="Path_120" data-name="Path 120" d="M97.413,143.168A32.75,32.75,0,0,1,64.7,110.455V87.941a1.5,1.5,0,0,1,3,0v22.514a29.746,29.746,0,0,0,29.713,29.713,1.5,1.5,0,0,1,0,3Z" transform="translate(-49.596 -48.454)" fill="#c02"/>
  <path id="Path_121" data-name="Path 121" d="M128.627,102.4a1.5,1.5,0,0,1-.78-.219L102.136,86.526a1.5,1.5,0,0,1,1.56-2.562l23.431,14.263V91.34A29.747,29.747,0,0,0,97.413,61.627a1.5,1.5,0,0,1,0-3A32.751,32.751,0,0,1,130.127,91.34V100.9a1.5,1.5,0,0,1-1.5,1.5Z" transform="translate(-49.596 -48.454)" fill="#c02"/>
  <path id="Path_122" data-name="Path 122" d="M60.05,88.817a1.5,1.5,0,0,1-1.5-1.5A38.907,38.907,0,0,1,97.413,48.454a1.5,1.5,0,0,1,0,3A35.9,35.9,0,0,0,61.55,87.317,1.5,1.5,0,0,1,60.05,88.817Z" transform="translate(-49.596 -48.454)" fill="#c02"/>
  <path id="Path_123" data-name="Path 123" d="M66.342,115.9H60.13A10.545,10.545,0,0,1,49.6,105.364V96.585A10.545,10.545,0,0,1,60.13,86.051h6.212a1.5,1.5,0,0,1,1.5,1.5V114.4A1.5,1.5,0,0,1,66.342,115.9ZM60.13,89.051A7.543,7.543,0,0,0,52.6,96.585v8.779A7.542,7.542,0,0,0,60.13,112.9h4.712V89.051Z" transform="translate(-49.596 -48.454)" fill="#c02"/>
  <g id="Group_677" data-name="Group 677" transform="translate(46.493)">
    <path id="Path_124" data-name="Path 124" d="M134.953,88.817a1.5,1.5,0,0,1-1.5-1.5A35.9,35.9,0,0,0,97.589,51.454a1.5,1.5,0,0,1,0-3,38.907,38.907,0,0,1,38.864,38.863A1.5,1.5,0,0,1,134.953,88.817Z" transform="translate(-96.089 -48.454)" fill="#c02"/>
    <path id="Path_125" data-name="Path 125" d="M134.873,115.9h-6.212a1.5,1.5,0,0,1-1.5-1.5V87.551a1.5,1.5,0,0,1,1.5-1.5h6.212a10.545,10.545,0,0,1,10.534,10.534v8.779A10.545,10.545,0,0,1,134.873,115.9Zm-4.712-3h4.712a7.542,7.542,0,0,0,7.534-7.534V96.585a7.543,7.543,0,0,0-7.534-7.534h-4.712Z" transform="translate(-96.089 -48.454)" fill="#c02"/>
  </g>
  <path id="Path_126" data-name="Path 126" d="M66.2,102.4a1.5,1.5,0,0,1-1.5-1.5V91.34A32.75,32.75,0,0,1,97.413,58.627a1.5,1.5,0,0,1,0,3A29.747,29.747,0,0,0,67.7,91.34v7.285l34.628-14.76a1.5,1.5,0,0,1,1.176,2.76l-36.716,15.65A1.506,1.506,0,0,1,66.2,102.4Z" transform="translate(-49.596 -48.454)" fill="#c02"/>
  <path id="Path_127" data-name="Path 127" d="M126.6,142.186H112.7a8.258,8.258,0,0,1,0-16.516H126.6a1.5,1.5,0,0,1,1.5,1.5v13.516A1.5,1.5,0,0,1,126.6,142.186ZM112.7,128.67a5.258,5.258,0,0,0,0,10.516H125.1V128.67Z" transform="translate(-49.596 -48.454)" fill="#c02"/>
  <path id="Path_128" data-name="Path 128" d="M126.6,135.428a1.5,1.5,0,0,1,0-3,6.866,6.866,0,0,0,6.858-6.858V114.4a1.5,1.5,0,0,1,3,0V125.57A9.869,9.869,0,0,1,126.6,135.428Z" transform="translate(-49.596 -48.454)" fill="#c02"/>
</svg>
