<svg id="Insurance_claims" data-name="Insurance claims" xmlns="http://www.w3.org/2000/svg" width="75.631" height="97.269" viewBox="0 0 75.631 97.269">
  <path id="Path_111" data-name="Path 111" d="M122.426,157.689A20.492,20.492,0,1,1,142.918,137.2,20.514,20.514,0,0,1,122.426,157.689Zm0-37.984A17.492,17.492,0,1,0,139.918,137.2,17.511,17.511,0,0,0,122.426,119.705Z" transform="translate(-67.287 -60.42)" fill="#c02"/>
  <path id="Path_112" data-name="Path 112" d="M96.631,147.2H68.787a1.5,1.5,0,0,1-1.5-1.5V61.92a1.5,1.5,0,0,1,1.5-1.5h62.426a1.5,1.5,0,0,1,1.5,1.5v46.363a1.5,1.5,0,0,1-3,0V63.42H70.287V144.2H96.631a1.5,1.5,0,0,1,0,3Z" transform="translate(-67.287 -60.42)" fill="#c02"/>
  <path id="Path_113" data-name="Path 113" d="M122.426,86.981H77.574a1.5,1.5,0,0,1-1.5-1.5v-13.2a1.5,1.5,0,0,1,1.5-1.5h44.852a1.5,1.5,0,0,1,1.5,1.5v13.2A1.5,1.5,0,0,1,122.426,86.981Zm-43.352-3h41.852v-10.2H79.074Z" transform="translate(-67.287 -60.42)" fill="#c02"/>
  <path id="Path_114" data-name="Path 114" d="M122.426,95.61H77.574a1.5,1.5,0,0,1,0-3h44.852a1.5,1.5,0,0,1,0,3Z" transform="translate(-67.287 -60.42)" fill="#c02"/>
  <path id="Path_115" data-name="Path 115" d="M122.426,103.548H77.574a1.5,1.5,0,0,1,0-3h44.852a1.5,1.5,0,0,1,0,3Z" transform="translate(-67.287 -60.42)" fill="#c02"/>
  <path id="Path_116" data-name="Path 116" d="M122.426,111.484H77.574a1.5,1.5,0,0,1,0-3h44.852a1.5,1.5,0,0,1,0,3Z" transform="translate(-67.287 -60.42)" fill="#c02"/>
  <path id="Path_117" data-name="Path 117" d="M100,119.422H77.574a1.5,1.5,0,0,1,0-3H100a1.5,1.5,0,0,1,0,3Z" transform="translate(-67.287 -60.42)" fill="#c02"/>
  <g id="Group_673" data-name="Group 673" transform="translate(48.731 64.685)">
    <path id="Path_118" data-name="Path 118" d="M127.725,144.548a6.679,6.679,0,0,1-3.549,1.785l.02,2.116a1.207,1.207,0,0,1-1.241,1.267,1.188,1.188,0,0,1-.879-.344,1.223,1.223,0,0,1-.361-.9l-.021-2.065a8.952,8.952,0,0,1-2.751-.625,8.165,8.165,0,0,1-2.367-1.544,1.388,1.388,0,0,1-.558-1.066,1.187,1.187,0,0,1,.357-.852,1.15,1.15,0,0,1,.858-.387,1.08,1.08,0,0,1,.761.279,7.356,7.356,0,0,0,1.736,1.21,6.413,6.413,0,0,0,1.941.583l-.061-6.036a8.238,8.238,0,0,1-3.859-1.778,4.4,4.4,0,0,1-1.367-3.371,4.492,4.492,0,0,1,1.39-3.423,6.441,6.441,0,0,1,3.734-1.67l-.014-1.357a1.188,1.188,0,0,1,.357-.9,1.26,1.26,0,0,1,.91-.363,1.154,1.154,0,0,1,.866.345,1.248,1.248,0,0,1,.349.9l.013,1.383a8.649,8.649,0,0,1,2.281.631,6.115,6.115,0,0,1,1.761,1.132,1.5,1.5,0,0,1,.613,1.117,1.175,1.175,0,0,1-.345.839,1.135,1.135,0,0,1-.846.375.859.859,0,0,1-.6-.2,4.934,4.934,0,0,0-1.238-.85,6.44,6.44,0,0,0-1.6-.559l.057,5.8a8.512,8.512,0,0,1,3.755,1.778,4.52,4.52,0,0,1,1.262,3.423A4.46,4.46,0,0,1,127.725,144.548Zm-8.15-10.175a5.3,5.3,0,0,0,2.01,1.039l-.054-5.278a3.66,3.66,0,0,0-1.963.908,2.316,2.316,0,0,0,.007,3.331Zm6.343,8.521a2.073,2.073,0,0,0,.664-1.549,2.466,2.466,0,0,0-.656-1.653A4.636,4.636,0,0,0,124.1,138.6l.052,5.252A3.954,3.954,0,0,0,125.918,142.894Z" transform="translate(-116.018 -125.105)" fill="#c02"/>
  </g>
</svg>
