<svg id="Trusted" xmlns="http://www.w3.org/2000/svg" width="66.547" height="86.778" viewBox="0 0 66.547 86.778">
  <path id="Path_132" data-name="Path 132" d="M100,149.2a1.512,1.512,0,0,1-.586-.119A53.563,53.563,0,0,1,66.727,99.695V70.666a1.5,1.5,0,0,1,1.5-1.5,76.164,76.164,0,0,0,29.924-6.088l1.263-.536a1.491,1.491,0,0,1,1.172,0l1.263.536a76.164,76.164,0,0,0,29.924,6.088,1.5,1.5,0,0,1,1.5,1.5V99.695a53.563,53.563,0,0,1-32.687,49.386A1.512,1.512,0,0,1,100,149.2ZM69.727,72.152V99.695A50.563,50.563,0,0,0,100,146.066a50.563,50.563,0,0,0,30.273-46.371V72.152a79.1,79.1,0,0,1-29.6-6.313L100,65.552l-.677.287A79.1,79.1,0,0,1,69.727,72.152Z" transform="translate(-66.727 -62.422)" fill="#c02"/>
  <path id="Path_133" data-name="Path 133" d="M100,117.4a16.424,16.424,0,1,1,9.184-30.041,1.5,1.5,0,1,1-1.68,2.485,13.424,13.424,0,1,0,5.656,13.8,13.519,13.519,0,0,0,.264-2.663,1.5,1.5,0,0,1,3,0A16.4,16.4,0,0,1,100,117.4Z" transform="translate(-66.727 -62.422)" fill="#c02"/>
  <path id="Path_134" data-name="Path 134" d="M100.97,107.955a1.5,1.5,0,0,1-1.061-.439l-7.462-7.462a1.5,1.5,0,1,1,2.121-2.121l6.4,6.4,18.225-18.227a1.5,1.5,0,0,1,2.121,2.122L102.03,107.516A1.5,1.5,0,0,1,100.97,107.955Z" transform="translate(-66.727 -62.422)" fill="#c02"/>
</svg>
