<svg xmlns="http://www.w3.org/2000/svg" width="23" height="23" viewBox="0 0 23 23">
    <path fill="#717171" fill-rule="nonzero" d="M19.636 3.364C15.15-1.12 7.85-1.122 3.364 3.364c-4.486 4.487-4.485 11.785 0 16.271 4.486 4.487 11.785 4.487 16.272 0 4.485-4.486 4.485-11.785 0-16.27zm-3.599 12.673a.885.885 0 0 1-1.251 0L11.5 12.75l-3.442 3.442a.885.885 0 1 1-1.251-1.251l3.442-3.442-3.286-3.286a.885.885 0 1 1 1.251-1.251l3.286 3.286 3.13-3.13a.885.885 0 1 1 1.25 1.252L12.753 11.5l3.285 3.286a.885.885 0 0 1 0 1.25z"/>
</svg>
