<svg xmlns="http://www.w3.org/2000/svg" width="36" height="36" viewBox="0 0 36 36">
    <g fill="none" fill-rule="evenodd">
        <path fill="#DC4E41" d="M35.903 17.85c0 9.806-8.037 17.755-17.951 17.755S0 27.655 0 17.85 8.038.096 17.952.096c9.914 0 17.951 7.95 17.951 17.754z"/>
        <path fill="#DC4E41" d="M6.25 18.645c-.064 3.055 2.064 5.97 4.99 6.92 2.757.916 6.146.232 7.98-2.103 1.34-1.637 1.644-3.817 1.499-5.854-2.361-.022-4.722-.014-7.078-.011-.005.831 0 1.66.003 2.491 1.412.039 2.826.022 4.24.05-.356 1.21-1.17 2.335-2.403 2.772-2.383 1.037-5.42-.319-6.17-2.79-.905-2.367.577-5.223 3.022-5.91 1.515-.527 3.078.066 4.375.845a33.67 33.67 0 0 0 1.876-1.915c-1.475-1.219-3.368-1.967-5.315-1.803-3.82.045-7.164 3.533-7.019 7.308zM25.312 15.499c-.006.697-.014 1.395-.017 2.09-.707.007-1.41.011-2.114.014v2.083c.703.004 1.411.006 2.114.014.007.696.007 1.391.014 2.091.7 0 1.403-.005 2.107 0 .003-.7.006-1.395.014-2.094l2.112-.01v-2.084c-.703-.003-1.41-.006-2.112-.014-.005-.695-.011-1.393-.014-2.089l-2.104-.001z"/>
        <path fill="#FFF" d="M6.25 18.645c-.145-3.775 3.198-7.263 7.019-7.308 1.947-.164 3.84.584 5.315 1.803a33.67 33.67 0 0 1-1.876 1.915c-1.299-.779-2.86-1.374-4.377-.845-2.445.687-3.926 3.543-3.02 5.909.748 2.472 3.787 3.828 6.17 2.79 1.233-.436 2.045-1.561 2.403-2.772-1.414-.027-2.828-.01-4.24-.049-.005-.831-.008-1.66-.005-2.491 2.358-.004 4.719-.01 7.08.01.143 2.038-.16 4.218-1.5 5.855-1.833 2.335-5.222 3.02-7.98 2.103-2.925-.95-5.053-3.865-4.989-6.92zM25.312 15.499h2.104c.003.697.009 1.395.014 2.09.703.007 1.41.011 2.112.014v2.083c-.703.004-1.41.006-2.112.011-.008.699-.011 1.394-.014 2.092-.704-.003-1.408 0-2.107 0-.007-.698-.007-1.393-.014-2.089-.703-.008-1.41-.01-2.114-.014v-2.083c.703-.005 1.407-.007 2.114-.014.003-.695.01-1.393.017-2.09z"/>
    </g>
</svg>
