<svg xmlns="http://www.w3.org/2000/svg" width="9.395" height="7.313" viewBox="0 0 9.395 7.313">
  <path id="Path_264" data-name="Path 264" d="M-2.26-4.189-5.383-7.338a.431.431,0,0,1-.127-.317.431.431,0,0,1,.127-.317l1.066-1.066a.506.506,0,0,1,.33-.127.416.416,0,0,1,.3.127L-1.93-7.287l3.986-3.961a.431.431,0,0,1,.317-.127.431.431,0,0,1,.317.127l1.066,1.066a.522.522,0,0,1,.127.343.431.431,0,0,1-.127.317L-1.625-4.189a.506.506,0,0,1-.33.127A.416.416,0,0,1-2.26-4.189Z" transform="translate(5.51 11.375)" fill="#199854"/>
</svg>
