<svg xmlns="http://www.w3.org/2000/svg" width="32" height="32" viewBox="0 0 32 32">
  <g id="Facebook" transform="translate(9775 448)">
    <g id="Group_938" data-name="Group 938" transform="translate(-10568 -2682)">
      <path id="Path_241" data-name="Path 241" d="M809,2234a16,16,0,1,1-16,16,16,16,0,0,1,16-16m0,1a15,15,0,1,1-15,15,15,15,0,0,1,15-15" fill="#f2f3f0" fill-rule="evenodd"/>
    </g>
    <path id="facebook-2" data-name="facebook" d="M14.5,2h0V5H13c-.517,0-.75.607-.75,1.125V8H14.5v3H12.25v6h-3V11H7V8H9.25V5a3,3,0,0,1,3-3Z" transform="translate(-9770 -441)" fill="#f2f3f0"/>
  </g>
</svg>
