<svg id="LinkedIn" xmlns="http://www.w3.org/2000/svg" width="32" height="32" viewBox="0 0 32 32">
  <g id="Group_939" data-name="Group 939">
    <path id="Path_242" data-name="Path 242" d="M879,2234a16,16,0,1,1-16,16,16,16,0,0,1,16-16m0,1a15,15,0,1,1-15,15,15,15,0,0,1,15-15" transform="translate(-863 -2234)" fill="#f2f3f0" fill-rule="evenodd"/>
  </g>
  <path id="Path_280" data-name="Path 280" d="M3.214-15.35v-9.611H.225v9.611ZM1.736-26.278a1.669,1.669,0,0,0,1.221-.514,1.669,1.669,0,0,0,.514-1.221,1.669,1.669,0,0,0-.514-1.221,1.669,1.669,0,0,0-1.221-.514,1.669,1.669,0,0,0-1.221.514A1.669,1.669,0,0,0,0-28.014a1.669,1.669,0,0,0,.514,1.221A1.669,1.669,0,0,0,1.736-26.278ZM14.4-15.35v-5.271a6.5,6.5,0,0,0-.643-3.279,3.19,3.19,0,0,0-2.925-1.318,3.169,3.169,0,0,0-1.8.514A2.569,2.569,0,0,0,8-23.643H7.971v-1.318H5.111v9.611H8.068v-4.757a3.588,3.588,0,0,1,.321-1.7,1.506,1.506,0,0,1,1.446-.771,1.353,1.353,0,0,1,1.382.868,5.192,5.192,0,0,1,.193,1.671v4.693Z" transform="translate(8.8 38.55)" fill="#f2f3f0"/>
</svg>
