<svg xmlns="http://www.w3.org/2000/svg" width="12.5" height="12.5" viewBox="0 0 12.5 12.5">
  <path id="Path_145" data-name="Path 145" d="M6.437-10.312a6.059,6.059,0,0,1,3.125.844,6.315,6.315,0,0,1,2.281,2.281,6.058,6.058,0,0,1,.844,3.125,6.058,6.058,0,0,1-.844,3.125A6.315,6.315,0,0,1,9.563,1.343a6.059,6.059,0,0,1-3.125.844,6.058,6.058,0,0,1-3.125-.844A6.315,6.315,0,0,1,1.032-.937,6.058,6.058,0,0,1,.187-4.062a6.058,6.058,0,0,1,.844-3.125A6.315,6.315,0,0,1,3.312-9.468,6.059,6.059,0,0,1,6.437-10.312ZM9.512-2.424,7.849-4.062,9.512-5.7a.351.351,0,0,0,.076-.214.351.351,0,0,0-.076-.214L8.5-7.137a.272.272,0,0,0-.2-.076.369.369,0,0,0-.227.076L6.437-5.474,4.8-7.137a.351.351,0,0,0-.214-.076.351.351,0,0,0-.214.076L3.363-6.129a.272.272,0,0,0-.076.2.369.369,0,0,0,.076.227L5.026-4.062,3.363-2.424a.351.351,0,0,0-.076.214A.351.351,0,0,0,3.363-2L4.371-.988a.272.272,0,0,0,.2.076A.369.369,0,0,0,4.8-.988L6.437-2.651,8.076-.988a.351.351,0,0,0,.214.076A.351.351,0,0,0,8.5-.988L9.512-2a.272.272,0,0,0,.076-.2A.369.369,0,0,0,9.512-2.424Z" transform="translate(-0.188 10.313)" fill="#fff"/>
</svg>
