<svg xmlns="http://www.w3.org/2000/svg" width="97.173" height="81.913" viewBox="0 0 97.173 81.913">
  <g id="Medical_Inclusions" data-name="Medical Inclusions" transform="translate(-1033.852 -1667.977)">
    <g id="Group_680" data-name="Group 680" transform="translate(1033.852 1667.977)">
      <path id="Path_130" data-name="Path 130" d="M98.109,146.4a1.5,1.5,0,0,1-1.065-.443L65.813,114.487a1.5,1.5,0,1,1,2.13-2.113l30.166,30.4,29.955-30.187a1.5,1.5,0,1,1,2.129,2.113L99.174,145.962A1.5,1.5,0,0,1,98.109,146.4Z" transform="translate(-46.165 -64.492)" fill="#c02"/>
      <path id="Path_131" data-name="Path 131" d="M97.117,118.687a1.5,1.5,0,0,1-1.427-1.036l-5.741-17.607L87.2,104.879a1.5,1.5,0,0,1-1.3.759H47.665a1.5,1.5,0,0,1,0-3H85.026l3.992-7.028a1.5,1.5,0,0,1,2.731.276l5.3,16.263L103.827,89.4a1.5,1.5,0,0,1,1.438-1.072h.028a1.5,1.5,0,0,1,1.425,1.127l3.219,12.552H135.9a29.485,29.485,0,0,0,2.615-4.54c3.49-8.6,1.882-17.725-4.2-23.805a21.085,21.085,0,0,0-29.785,0l-5.359,5.36a1.545,1.545,0,0,1-2.121,0l-5.36-5.36A21.065,21.065,0,0,0,57.55,97.122a1.5,1.5,0,1,1-2.741,1.22,24.211,24.211,0,0,1,4.974-26.8,24.059,24.059,0,0,1,34.027,0l4.3,4.3,4.3-4.3a24.06,24.06,0,0,1,34.028,0c6.948,6.947,8.809,17.314,4.857,27.055a36.17,36.17,0,0,1-3.387,5.783,1.5,1.5,0,0,1-1.22.628H108.773a1.5,1.5,0,0,1-1.453-1.127l-2.163-8.436-6.6,22.171a1.5,1.5,0,0,1-1.418,1.073Z" transform="translate(-46.165 -64.492)" fill="#c02"/>
    </g>
  </g>
</svg>
