<svg xmlns="http://www.w3.org/2000/svg" width="100" height="100" viewBox="0 0 100 100">
  <g id="Group_1395" data-name="Group 1395" transform="translate(12129 1796)">
    <g id="Ellipse_9" data-name="Ellipse 9" transform="translate(-12129 -1796)" fill="none" stroke="#fff" stroke-width="2">
      <circle cx="50" cy="50" r="50" stroke="none"/>
      <circle cx="50" cy="50" r="49" fill="none"/>
    </g>
    <path id="Path_268" data-name="Path 268" d="M16.243-10.051a3.02,3.02,0,0,1,1.445,1.68,3.22,3.22,0,0,1,0,2.15,3.02,3.02,0,0,1-1.445,1.68L-7.412,9.436a3.03,3.03,0,0,1-2.15.4,3.241,3.241,0,0,1-1.915-1.075,3.039,3.039,0,0,1-.773-2.083V-21.274a3.022,3.022,0,0,1,.806-2.184,3.3,3.3,0,0,1,1.949-1.008,2.939,2.939,0,0,1,2.083.437Z" transform="translate(-12080.335 -1738.118)" fill="#fff"/>
  </g>
</svg>
