<svg xmlns="http://www.w3.org/2000/svg" width="68" height="68.131" viewBox="0 0 68 68.131">
  <g id="Expensive" transform="translate(-66 -144.614)">
    <path id="Path_183" data-name="Path 183" d="M127.988,173.845H115.172a1.5,1.5,0,0,0,0,3h12.816A3.014,3.014,0,0,1,131,179.856v1.281H111.029a1.5,1.5,0,0,0,0,3H131v4.348H105.937a1.5,1.5,0,0,0,0,3H131v15.248a3.015,3.015,0,0,1-3.012,3.012H72.012A3.015,3.015,0,0,1,69,206.733V191.485H93.668a1.5,1.5,0,0,0,0-3H69v-4.348H88.519a1.5,1.5,0,1,0,0-3H69v-1.281a3.014,3.014,0,0,1,3.012-3.011h12.71a1.5,1.5,0,1,0,0-3H72.012A6.019,6.019,0,0,0,66,179.856v26.877a6.019,6.019,0,0,0,6.012,6.012h55.976A6.019,6.019,0,0,0,134,206.733V179.856A6.019,6.019,0,0,0,127.988,173.845Z" fill="#c02"/>
    <path id="Path_184" data-name="Path 184" d="M73.974,200.149H88.865a1.5,1.5,0,0,0,0-3H73.974a1.5,1.5,0,0,0,0,3Z" fill="#c02"/>
    <path id="Path_185" data-name="Path 185" d="M73.974,205.14H94.2a1.5,1.5,0,1,0,0-3H73.974a1.5,1.5,0,0,0,0,3Z" fill="#c02"/>
    <path id="Path_186" data-name="Path 186" d="M122.247,206.948a4.37,4.37,0,0,0,4.365-4.365V199.9a4.37,4.37,0,0,0-4.365-4.365h-6.181A4.37,4.37,0,0,0,111.7,199.9v2.682a4.37,4.37,0,0,0,4.365,4.365Zm-7.546-4.365V199.9a1.366,1.366,0,0,1,1.365-1.365h6.181a1.366,1.366,0,0,1,1.365,1.365v2.682a1.366,1.366,0,0,1-1.365,1.365h-6.181A1.366,1.366,0,0,1,114.7,202.583Z" fill="#c02"/>
    <path id="Path_187" data-name="Path 187" d="M98.167,190.218l.024.1.039-.009.344.5a1.5,1.5,0,0,0,1.237.651h0a1.5,1.5,0,0,0,1.236-.651l21.925-31.89a1.5,1.5,0,0,0,0-1.7l-8.286-11.959a1.5,1.5,0,0,0-1.234-.646H86.176a1.5,1.5,0,0,0-1.247.666l-8.115,12.133a1.5,1.5,0,0,0,.01,1.683Zm-17.319-30.56,9.861-.02,5.45,22.346Zm38.033-.079-15.316,22.278,5.427-22.257Zm-12.977.027-6.058,24.839-6.051-24.814Zm-11.843-2.975,2.871-9.017h6.084l2.864,8.992Zm24.816-.052-9.851.021-2.861-8.986h6.5Zm-31.9-8.965h6.805l-2.872,9.023-9.982.021Z" fill="#c02"/>
  </g>
</svg>
