<svg xmlns="http://www.w3.org/2000/svg" width="54.984" height="68.001" viewBox="0 0 54.984 68.001">
  <g id="Cruise" transform="translate(-72.454 -143.383)">
    <g id="Group_909" data-name="Group 909">
      <g id="Group_908" data-name="Group 908">
        <path id="Path_188" data-name="Path 188" d="M84.935,203.136a1.5,1.5,0,0,1-1.357-.858L72.6,179.1a1.5,1.5,0,0,1,.785-2.031L99.376,166.4a1.5,1.5,0,0,1,1.141,2.775L75.986,179.245l10.3,21.748a1.5,1.5,0,0,1-1.354,2.143Z" fill="#c02"/>
        <path id="Path_189" data-name="Path 189" d="M114.958,203.136a1.5,1.5,0,0,1-1.354-2.143l10.3-21.748L99.377,169.171a1.5,1.5,0,0,1,1.139-2.775l25.993,10.674a1.5,1.5,0,0,1,.785,2.031l-10.98,23.177A1.5,1.5,0,0,1,114.958,203.136Z" fill="#c02"/>
      </g>
      <path id="Path_190" data-name="Path 190" d="M99.946,203.543a1.5,1.5,0,0,1-1.5-1.5v-34.26a1.5,1.5,0,0,1,2.071-1.387l1.816.746a1.5,1.5,0,0,1-.887,2.854v32.047A1.5,1.5,0,0,1,99.946,203.543Z" fill="#c02"/>
      <path id="Path_191" data-name="Path 191" d="M117.465,175.892a1.5,1.5,0,0,1-1.5-1.5V162.574H84.4v11.818a1.5,1.5,0,1,1-3,0V161.074a1.5,1.5,0,0,1,1.5-1.5h34.565a1.5,1.5,0,0,1,1.5,1.5v13.318A1.5,1.5,0,0,1,117.465,175.892Z" fill="#c02"/>
      <path id="Path_192" data-name="Path 192" d="M110.146,162.065a1.5,1.5,0,0,1-1.5-1.5v-4.5H91.415v4.5a1.5,1.5,0,0,1-3,0v-6a1.5,1.5,0,0,1,1.5-1.5h20.231a1.5,1.5,0,0,1,1.5,1.5v6A1.5,1.5,0,0,1,110.146,162.065Z" fill="#c02"/>
      <path id="Path_193" data-name="Path 193" d="M99.946,156.067a1.5,1.5,0,0,1-1.5-1.5v-9.684a1.5,1.5,0,0,1,1.5-1.5h7.188a1.729,1.729,0,0,1,1.559,2.482l-.092.195,4.857-.135A1.473,1.473,0,0,1,115,147.382a1.5,1.5,0,0,1-1.457,1.541l-6.939.192a1.645,1.645,0,0,1-1.5-.788,1.716,1.716,0,0,1-.108-1.693l.121-.251h-3.669v8.184A1.5,1.5,0,0,1,99.946,156.067Z" fill="#c02"/>
    </g>
    <path id="Path_194" data-name="Path 194" d="M125.479,211.383a1.484,1.484,0,0,1-.722-.187l-5.622-3.1a4.7,4.7,0,0,0-4.549.026l-2.4,1.361a7.717,7.717,0,0,1-7.5.031l-2.529-1.406a4.7,4.7,0,0,0-4.557.016l-2.444,1.379a7.62,7.62,0,0,1-7.444.051l-2.674-1.462a4.693,4.693,0,0,0-4.553.043l-5.327,3.048a1.5,1.5,0,1,1-1.49-2.6l5.327-3.048a7.705,7.705,0,0,1,7.483-.071l2.673,1.461a4.633,4.633,0,0,0,4.531-.03l2.443-1.379a7.719,7.719,0,0,1,7.489-.027l2.529,1.406a4.693,4.693,0,0,0,4.561-.019l2.4-1.361a7.714,7.714,0,0,1,7.474-.042l5.622,3.1a1.5,1.5,0,0,1-.725,2.814Z" fill="#c02"/>
  </g>
</svg>
