<svg xmlns="http://www.w3.org/2000/svg" width="63.579" height="67.996" viewBox="0 0 63.579 67.996">
  <g id="Winter_Sports" data-name="Winter Sports" transform="translate(-68.21 -144.445)">
    <path id="Path_195" data-name="Path 195" d="M123.948,160.126a7.84,7.84,0,1,1,7.841-7.841A7.85,7.85,0,0,1,123.948,160.126Zm0-12.681a4.84,4.84,0,1,0,4.841,4.84A4.845,4.845,0,0,0,123.948,147.445Z" fill="#c02"/>
    <path id="Path_196" data-name="Path 196" d="M113.709,212.441a5.823,5.823,0,0,1-2.821-.726l-41.9-23.209a1.5,1.5,0,0,1,1.453-2.625l41.9,23.209a2.845,2.845,0,0,0,3.232-.339l.685-.6a1.5,1.5,0,0,1,1.967,2.266l-.685.6A5.849,5.849,0,0,1,113.709,212.441Z" fill="#c02"/>
    <path id="Path_197" data-name="Path 197" d="M88.944,199.347a1.5,1.5,0,0,1-1.132-2.483L99.89,182.92l-7.269-8.276a9.688,9.688,0,0,1-2.223-8.438,9.853,9.853,0,0,1,1.226-3.111l-9.314-5.511A1.5,1.5,0,1,1,83.837,155l9.765,5.777a9.9,9.9,0,0,1,2.209-1.419l6.928-3.25a11.184,11.184,0,0,1,14.251,4.232,2.486,2.486,0,0,1,.352,1.628l-.938,7.224,7.438,8.827a1.83,1.83,0,0,1-2.332,2.754l-27.3-16.151a6.8,6.8,0,0,0-.873,2.2,6.7,6.7,0,0,0,1.539,5.844l7.568,8.618a2.489,2.489,0,0,1,.01,3.262L90.079,198.829A1.5,1.5,0,0,1,88.944,199.347Zm32.6-19.394,0,0ZM96.409,162.44l20.7,12.246-3.145-3.733a2.492,2.492,0,0,1-.563-1.916l.943-7.269a8.187,8.187,0,0,0-10.329-2.942l-6.93,3.251A7.269,7.269,0,0,0,96.409,162.44Z" fill="#c02"/>
    <path id="Path_198" data-name="Path 198" d="M95.025,202.714a1.5,1.5,0,0,1-1.1-2.516l16.1-17.487-7.538-10.261a2.479,2.479,0,0,1,.56-3.487L115,160.442a1.5,1.5,0,1,1,1.74,2.444L105.21,171.1l7.477,10.18a2.486,2.486,0,0,1-.173,3.148l-16.385,17.8A1.494,1.494,0,0,1,95.025,202.714Z" fill="#c02"/>
    <path id="Path_199" data-name="Path 199" d="M83.729,161.962a1.5,1.5,0,0,1-1.276-2.287l3.389-5.5a1.5,1.5,0,1,1,2.553,1.574l-3.389,5.495A1.5,1.5,0,0,1,83.729,161.962Z" fill="#c02"/>
  </g>
</svg>
