<svg id="PDF" xmlns="http://www.w3.org/2000/svg" width="26.85" height="30.721" viewBox="0 0 26.85 30.721">
  <path id="Subtraction_2" data-name="Subtraction 2" d="M24.453,30.721H2.4a2.406,2.406,0,0,1-2.4-2.4V2.4A2.406,2.406,0,0,1,2.4,0H16.781a6.665,6.665,0,0,1,4.093,1.7l4.279,4.286a6.66,6.66,0,0,1,1.7,4.1V28.321a2.406,2.406,0,0,1-2.4,2.4ZM2.4,1.92a.486.486,0,0,0-.479.48V28.321a.486.486,0,0,0,.479.48H24.452a.489.489,0,0,0,.48-.479V10.083a2.407,2.407,0,0,0-.054-.48H17.261V1.971a2.614,2.614,0,0,0-.479-.051Zm16.781.856v4.9h4.9a2.346,2.346,0,0,0-.276-.342L19.52,3.055A2.632,2.632,0,0,0,19.178,2.776Z" transform="translate(0 0)" fill="#c02"/>
  <path id="Path_305" data-name="Path 305" d="M104.9,102.631a1.852,1.852,0,0,1-.713.126,8.367,8.367,0,0,1-2.943-.894c.5-.036.947-.054,1.354-.054a5.211,5.211,0,0,1,1.69.186c.725.18.731.558.611.636Zm-12.892.114c.288-.5.581-1.038.881-1.608a30.124,30.124,0,0,0,1.54-3.372,11.221,11.221,0,0,0,2.547,3.168c.126.108.258.21.4.318A33.434,33.434,0,0,0,92.009,102.745ZM94.394,89.61c.408,0,.641,1.024.659,1.99a4.075,4.075,0,0,1-.485,2.136,10.361,10.361,0,0,1-.342-2.67S94.209,89.61,94.394,89.61Zm-8,18.433a8.917,8.917,0,0,1,2.493-2.988c.084-.066.294-.264.485-.444-1.408,2.256-2.355,3.15-2.979,3.432ZM105.29,101.3a4.19,4.19,0,0,0-2.7-.63,22.607,22.607,0,0,0-3.242.234,8.368,8.368,0,0,1-1.5-1.038,11.034,11.034,0,0,1-2.709-4.218c.036-.156.072-.288.1-.426a27.178,27.178,0,0,0,.473-4.938,1.337,1.337,0,0,0-.084-.354l-.054-.15a1.166,1.166,0,0,0-1.067-.814l-.318-.01h-.006a1.2,1.2,0,0,0-1.229.77c-.4,1.458.012,3.63.749,6.444l-.192.462c-.527,1.284-1.187,2.58-1.768,3.72l-.078.15c-.611,1.2-1.169,2.22-1.672,3.084l-.521.276c-.036.024-.929.492-1.139.618-1.774,1.062-2.954,2.268-3.149,3.228a.8.8,0,0,0,.3.876l.5.252a1.538,1.538,0,0,0,.685.162c1.265,0,2.733-1.572,4.753-5.106a47.223,47.223,0,0,1,7.33-1.746,12.566,12.566,0,0,0,5.334,1.7,2.39,2.39,0,0,0,.629-.072,1.036,1.036,0,0,0,.623-.426,2.245,2.245,0,0,0,.246-1.524,1.017,1.017,0,0,0-.3-.522Z" transform="translate(-81.977 -83.621)" fill="#c02"/>
</svg>
